<?xml version="1.0" encoding="UTF-8" standalone="no"?>
<!-- Created with Inkscape (http://www.inkscape.org/) -->

<svg
   xmlns:dc="http://purl.org/dc/elements/1.1/"
   xmlns:cc="http://creativecommons.org/ns#"
   xmlns:rdf="http://www.w3.org/1999/02/22-rdf-syntax-ns#"
   xmlns:svg="http://www.w3.org/2000/svg"
   xmlns="http://www.w3.org/2000/svg"
   xmlns:sodipodi="http://sodipodi.sourceforge.net/DTD/sodipodi-0.dtd"
   xmlns:inkscape="http://www.inkscape.org/namespaces/inkscape"
   width="148mm"
   height="210mm"
   viewBox="0 0 148 210"
   version="1.1"
   id="svg6867"
   inkscape:version="0.92.2 (5c3e80d, 2017-08-06)"
   sodipodi:docname="leaflet-4.svg">
  <defs
     id="defs6861" />
  <sodipodi:namedview
     id="base"
     pagecolor="#ffffff"
     bordercolor="#666666"
     borderopacity="1.0"
     inkscape:pageopacity="0.0"
     inkscape:pageshadow="2"
     inkscape:zoom="0.98994949"
     inkscape:cx="365.47852"
     inkscape:cy="386.38922"
     inkscape:document-units="mm"
     inkscape:current-layer="g7577"
     showgrid="false"
     inkscape:window-width="1280"
     inkscape:window-height="987"
     inkscape:window-x="0"
     inkscape:window-y="20"
     inkscape:window-maximized="1" />
  <metadata
     id="metadata6864">
    <rdf:RDF>
      <cc:Work
         rdf:about="">
        <dc:format>image/svg+xml</dc:format>
        <dc:type
           rdf:resource="http://purl.org/dc/dcmitype/StillImage" />
        <dc:title />
      </cc:Work>
    </rdf:RDF>
  </metadata>
  <g
     inkscape:label="Layer 1"
     inkscape:groupmode="layer"
     id="layer1"
     transform="translate(0,-87)">
    <g
       id="g7523"
       transform="matrix(0.29432077,0,0,0.29432077,0.4550064,-296.22295)">
      <rect
         y="1738.2759"
         x="3.4448242e-08"
         height="130.29001"
         width="500"
         id="rect5543"
         style="color:#000000;display:inline;overflow:visible;visibility:visible;fill:#ffffff;stroke:#008000;stroke-width:1.9572835;marker:none;enable-background:accumulate" />
      <flowRoot
         xml:space="preserve"
         id="flowRoot5545"
         style="font-style:normal;font-variant:normal;font-weight:normal;font-stretch:normal;line-height:0.01%;font-family:'Archivo Narrow';-inkscape-font-specification:'Archivo Narrow';letter-spacing:0px;word-spacing:0px;fill:#008000;fill-opacity:1;stroke:none"
         transform="matrix(1.1167441,0,0,1.1167441,-2.9304362,-315.4402)"><flowRegion
           id="flowRegion5547"><rect
             id="rect5549"
             width="466.49088"
             height="52.810287"
             x="14.302787"
             y="1863.4539"
             style="font-family:'Archivo Narrow';-inkscape-font-specification:'Archivo Narrow';fill:#008000;fill-opacity:1" /></flowRegion><flowPara
           id="flowPara5551"
           style="font-size:12.82933998px;line-height:1.25">Trénujte emailovou sebeobranu. Naučte se GnuPG za 30 minut na</flowPara></flowRoot>      <flowRoot
         transform="matrix(2.8533504,0,0,2.8533504,-33.222607,-3520.7187)"
         style="font-style:normal;font-variant:normal;font-weight:200;font-stretch:normal;line-height:0.01%;font-family:Dosis;-inkscape-font-specification:'Dosis Ultra-Light';text-align:start;letter-spacing:0px;word-spacing:0px;writing-mode:lr-tb;text-anchor:start;fill:#008000;fill-opacity:1;stroke:none"
         id="flowRoot6321"
         xml:space="preserve"><flowRegion
           id="flowRegion6323"><rect
             style="font-style:normal;font-variant:normal;font-weight:200;font-stretch:normal;font-size:13px;line-height:125%;font-family:Dosis;-inkscape-font-specification:'Dosis Ultra-Light';text-align:start;writing-mode:lr-tb;text-anchor:start;fill:#008000;fill-opacity:1"
             y="1863.4539"
             x="14.302787"
             height="52.810287"
             width="466.49088"
             id="rect6325" /></flowRegion><flowPara
           id="flowPara6327"
           style="font-size:13.38972378px;line-height:1.25">EmailSelfDefense.FSF.org </flowPara></flowRoot>    </g>
    <g
       id="g7577"
       transform="matrix(0.29547754,0,0,0.29547754,0.45401864,-304.41755)">
      <rect
         y="1948.1459"
         x="0.51297647"
         height="38.838055"
         width="497.02325"
         id="rect7273"
         style="color:#000000;display:inline;overflow:visible;visibility:visible;fill:#ffffff;fill-opacity:1;fill-rule:nonzero;stroke:#008000;stroke-width:2.77735949;stroke-linecap:round;stroke-linejoin:miter;stroke-miterlimit:4;stroke-dasharray:none;stroke-dashoffset:0;stroke-opacity:1;marker:none;enable-background:accumulate" />
      <flowRoot
         xml:space="preserve"
         id="flowRoot7103"
         style="font-style:normal;font-variant:normal;font-weight:bold;font-stretch:normal;line-height:0.01%;font-family:Dosis;-inkscape-font-specification:'Dosis Bold';text-align:end;letter-spacing:0px;word-spacing:0px;writing-mode:lr-tb;text-anchor:end;fill:#008000;fill-opacity:1;stroke:none"
         transform="matrix(1.3591008,0,0,1.3591008,-6.5516565,-614.76224)"><flowRegion
           id="flowRegion7105"
           style="text-align:end;text-anchor:end"><rect
             id="rect7107"
             width="346.36176"
             height="23.854092"
             x="16.193134"
             y="1891.0315"
             style="font-style:normal;font-variant:normal;font-weight:bold;font-stretch:normal;font-size:7.32900047px;line-height:125%;font-family:Dosis;-inkscape-font-specification:'Dosis Bold';text-align:end;writing-mode:lr-tb;text-anchor:end;fill:#008000;fill-opacity:1" /></flowRegion><flowPara
           id="flowPara7113"
           style="font-weight:normal;font-size:7.00021696px;line-height:1.25;-inkscape-font-specification:Dosis;text-align:end;text-anchor:end;fill:#008000;fill-opacity:1">Design informačního letáku a příručky: <flowSpan
   id="flowSpan7121"
   style="font-weight:bold;font-size:7.00021696px;-inkscape-font-specification:'Dosis Bold';text-align:end;text-anchor:end;fill:#008000;fill-opacity:1">Journalism++ </flowSpan></flowPara><flowPara
           style="font-weight:normal;font-size:7.00021696px;line-height:1.25;-inkscape-font-specification:Dosis;text-align:end;text-anchor:end;fill:#008000;fill-opacity:1"
           id="flowPara12199">Český překlad:<flowSpan
   style="font-weight:bold;font-size:7.00021696px;-inkscape-font-specification:'Dosis Bold';text-align:end;text-anchor:end;fill:#008000;fill-opacity:1"
   id="flowSpan12201"> tomichec@gmail.com </flowSpan>0xC6CC4AD6</flowPara></flowRoot>    </g>
    <g
       id="g7534"
       transform="matrix(0.26354751,0,0,0.26354751,-30.454041,-282.88739)">
      <rect
         style="color:#000000;display:inline;overflow:visible;visibility:visible;fill:#008000;fill-opacity:0.76847289;stroke:#008000;stroke-width:2.18758106;marker:none;enable-background:accumulate"
         id="rect6329"
         width="558.38275"
         height="63.752861"
         x="117.28074"
         y="2038.155" />
      <flowRoot
         transform="matrix(1.2481046,0,0,1.2481046,195.05709,-312.36451)"
         style="font-style:normal;font-variant:normal;font-weight:bold;font-stretch:normal;line-height:0.01%;font-family:Dosis;-inkscape-font-specification:'Dosis Bold';text-align:start;letter-spacing:0px;word-spacing:0px;writing-mode:lr-tb;text-anchor:start;fill:#ffffff;fill-opacity:1;stroke:none"
         id="flowRoot16296"
         xml:space="preserve"><flowRegion
           id="flowRegion16298"><rect
             style="font-style:normal;font-variant:normal;font-weight:bold;font-stretch:normal;font-size:10px;line-height:125%;font-family:Dosis;-inkscape-font-specification:'Dosis Bold';text-align:start;writing-mode:lr-tb;text-anchor:start;fill:#ffffff"
             y="1891.0315"
             x="16.193134"
             height="51.697231"
             width="282.05722"
             id="rect16300" /></flowRegion><flowPara
           style="font-weight:normal;font-size:10px;line-height:1.25;-inkscape-font-specification:Dosis"
           id="flowPara16302">Copyright 2018 Free Software Foundation.  </flowPara><flowPara
           style="font-weight:bold;font-size:10px;line-height:1.25;-inkscape-font-specification:'Dosis Bold'"
           id="flowPara7101">Úpravy dovoleny! </flowPara><flowPara
           style="font-weight:bold;font-size:10px;line-height:1.25;-inkscape-font-specification:'Dosis Bold'"
           id="flowPara6963">Zdrojový kód získáte na výše uvedené adrese.</flowPara></flowRoot>      <g
         style="fill:#ffffff"
         id="g7241"
         transform="matrix(0.07619721,0,0,0.07619721,131.53838,2053.1248)">
        <path
           d="m 751.955,11.813 c 0.858,0.429 -1.074,10.305 -61.406,12.452 -3.657,0.128 -39.54,2.537 -43.37,2.577 -39.721,0.429 -86.741,6.871 -120.234,14.814 -39.748,9.427 -86.097,24.047 -111.862,40.795 -10.608,6.896 -28.287,19.497 -32.85,31.776 -6.226,16.747 11.38,31.131 22.544,32.85 16.613,2.556 36.52,-0.457 53.462,-2.577 10.306,-1.289 25.859,-4.63 34.997,-5.368 7.944,-0.644 14.357,0.161 22.544,1.503 14.385,2.363 30.918,14.6 36.929,28.341 6.38,14.587 4.482,30.663 -1.717,44.015 -5.583,12.023 -18.774,23.737 -31.132,32.205 -11.595,7.945 -28.656,15.728 -42.942,21.901 -31.776,13.741 -66.558,23.188 -100.2,33.922 -13.451,4.295 -45.799,11.811 -72.852,17.177 -17.061,3.382 -35.016,6.563 -51.958,9.019 -29.63,4.293 -60.171,7.862 -89.532,10.735 -15.198,1.476 -39.741,3.583 -39.976,-3.529 0,0 -36,10.397 -36,10.397 0.523,6.229 17.434,10.192 41.059,9.787 93.625,-1.528 395.861,-13.043 462.493,-102.548 7.139,-9.619 14.599,-32.969 14.848,-58.438 l -28.8,-64.8 c -17.973,-13.735 -46.426,-26.926 -94.708,-13.152 -24.295,6.938 -73.839,27.522 -82.607,18.164 -8.274,-8.824 -1.404,-22.652 62.237,-52.355 16.09,-7.488 78.354,-33.655 189.343,-44.135 l 1.664,-0.034 C 721.815,33.275 747.507,31.214 761.858,26.659 766.474,25.196 781.423,16.89 780.1,9.718 779.531,6.483 772.332,2.142 765.768,3.223 749.485,5.792 741.533,5.283 626.165,4.424 598.91,4.229 595.448,3.478 528.635,4.336 468.102,5.081 398.068,11.152 338.4,42.419 c 0,0 -55.781,36.128 -55.781,36.128 -13.521,14.406 -24.807,31.716 -28.846,48.704 -4.039,16.988 -0.201,3.322 -0.201,3.322 0,0 34.428,59.848 34.428,59.848 1.074,0 6.722,1.906 12.001,4.32 7.818,3.57 20.336,7.677 28.771,9.448 12.238,2.577 24.906,6.442 34.353,1.932 5.038,-2.4 15.888,-12.452 15.244,-18.463 -0.711,-6.623 -12.01,-8.475 -18.894,-9.877 -11.594,-2.362 -29.69,-1.141 -44.444,-3.435 -16.25,-2.517 -29.353,-8.401 -35.212,-21.685 -5.435,-12.339 -1.502,-27.054 6.657,-39.935 7.185,-11.353 15.209,-20.632 25.764,-28.986 20.611,-16.318 46.867,-30.192 73.215,-41.223 27.696,-11.594 61.19,-21.685 93.61,-24.691 32.085,-2.972 66.559,-3.865 99.409,-3.006 27.751,0.725 78.367,0 83.09,0.43 4.724,0.429 88.746,-4.254 90.391,-3.435"
           id="path1"
           style="fill:#ffffff"
           inkscape:connector-curvature="0" />
        <path
           d="M 264.00001,128.819 H 0 v 64.8 c 0,0 300.00001,0 300.00001,0 m 44,-151.2 H 72 v 36 c 0,0 240.00001,0.128 240.00001,0.128 m 248,50.272 v 64.8 c 0,0 332.79999,0 332.79999,0 v -64.8 z M 604.8,244.02 h 252 v 36 h -252 z"
           id="path2"
           style="fill:#ffffff"
           inkscape:connector-curvature="0" />
        <path
           d="m 122.4,28.019 h -36 v 316.799 c 0,0 36,0.001 36,0.001 m 496.8,-223.2 v 273.6 H 648 v -273.6 z"
           id="path3"
           style="fill:#ffffff"
           inkscape:connector-curvature="0" />
      </g>
      <g
         inkscape:export-ydpi="300.23013"
         inkscape:export-xdpi="300.23013"
         inkscape:export-filename="/mnt/hgfs/Bov/Documents/Work/2007/cc/identity/srr buttons/big/by.png"
         id="g260"
         transform="matrix(0.70510032,0,0,0.70502709,452.85322,2052.4047)">
        <g
           transform="translate(2.7352424,1.3677633)"
           id="g7473">
          <path
             inkscape:connector-curvature="0"
             id="path3817_1_"
             nodetypes="ccccccc"
             d="m 181.96579,0.51074 114.06396,0.20264 c 1.59375,0 3.01758,-0.23633 3.01758,3.18066 l -0.13965,37.56689 H 179.08737 V 3.75439 c 0,-1.68505 0.16309,-3.24365 2.87842,-3.24365 z"
             style="fill:#ffffff;fill-opacity:0.3103448" />
          <path
             inkscape:connector-curvature="0"
             d="m 297.29636,0 h -116.229 c -1.24658,0 -2.26123,1.01416 -2.26123,2.26074 v 39.49658 c 0,0.28174 0.229,0.51025 0.51074,0.51025 h 119.73047 c 0.28174,0 0.51074,-0.22852 0.51074,-0.51025 V 2.26074 C 299.55807,1.01416 298.54343,0 297.29636,0 Z M 181.06735,1.02148 h 116.229 c 0.68408,0 1.24023,0.55566 1.24023,1.23926 0,0 0,15.94824 0,27.44971 h -83.34424 c -3.04492,5.50586 -8.91113,9.24414 -15.64355,9.24414 -6.73535,0 -12.6001,-3.73486 -15.64355,-9.24414 h -4.07764 c 0,-11.50146 0,-27.44971 0,-27.44971 1e-5,-0.68359 0.55616,-1.23926 1.23975,-1.23926 z"
             id="path263"
             style="fill:#008000;fill-opacity:1" />
          <g
             enable-background="new    "
             id="g265">
            <path
               inkscape:connector-curvature="0"
               d="m 253.07761,32.95605 c 0.31738,0 0.60742,0.02832 0.87012,0.08398 0.26172,0.05566 0.48535,0.14746 0.67285,0.27539 0.18652,0.12695 0.33203,0.29688 0.43457,0.50781 0.10254,0.21191 0.1543,0.47266 0.1543,0.78418 0,0.33594 -0.0762,0.61523 -0.22949,0.83887 -0.15234,0.22461 -0.37891,0.40723 -0.67773,0.55078 0.41211,0.11816 0.71973,0.3252 0.92285,0.62109 0.20312,0.29589 0.30469,0.65234 0.30469,1.06934 0,0.33594 -0.0654,0.62695 -0.19629,0.87305 -0.13086,0.24512 -0.30762,0.44629 -0.52832,0.60156 -0.22168,0.15625 -0.47461,0.27148 -0.75781,0.3457 -0.28418,0.0752 -0.5752,0.1123 -0.875,0.1123 H 249.936 v -6.66406 h 3.14161 z m -0.1875,2.69532 c 0.26172,0 0.47656,-0.0625 0.64551,-0.18652 0.16797,-0.12402 0.25195,-0.3252 0.25195,-0.60449 0,-0.15527 -0.0283,-0.2832 -0.084,-0.38184 -0.0566,-0.09961 -0.13086,-0.17676 -0.22461,-0.2334 -0.0937,-0.05566 -0.20117,-0.09473 -0.32227,-0.11621 -0.1211,-0.02148 -0.24805,-0.03223 -0.37793,-0.03223 h -1.37402 v 1.55469 h 1.48535 z m 0.0859,2.82812 c 0.14355,0 0.28027,-0.01367 0.41113,-0.04199 0.13086,-0.02832 0.24609,-0.0752 0.34668,-0.13965 0.0996,-0.06543 0.17871,-0.1543 0.23828,-0.2666 0.0596,-0.11133 0.0889,-0.25488 0.0889,-0.42871 0,-0.3418 -0.0967,-0.58594 -0.29004,-0.73242 -0.19336,-0.14551 -0.44922,-0.21875 -0.7666,-0.21875 h -1.59961 v 1.82812 h 1.57129 z"
               id="path267"
               style="fill:#ffffff" />
            <path
               inkscape:connector-curvature="0"
               d="m 255.78854,32.95605 h 1.64355 l 1.56055,2.63184 1.55078,-2.63184 h 1.63379 l -2.47363,4.10645 v 2.55762 h -1.46875 v -2.59473 z"
               id="path269"
               style="fill:#ffffff" />
          </g>
          <g
             id="g5908_1_"
             transform="matrix(0.872921,0,0,0.872921,50.12536,143.2144)">
            <path
               inkscape:connector-curvature="0"
               id="path5906_1_"
               cx="296.35416"
               ry="22.939548"
               cy="264.3577"
               type="arc"
               rx="22.939548"
               d="m 186.90065,-141.46002 c 0.006,8.68079 -7.02786,15.7215 -15.70808,15.72711 -8.68022,0.006 -15.72206,-7.02734 -15.7271,-15.70807 0,-0.006 0,-0.0123 0,-0.019 -0.005,-8.68079 7.02786,-15.7215 15.70808,-15.72656 8.68135,-0.006 15.72206,7.02734 15.7271,15.70813 0,0.006 0,0.0123 0,0.0184 z"
               style="fill:#ffffff" />
            <g
               id="g5706_1_"
               transform="translate(-289.6157,99.0653)"
               style="fill:#008000;fill-opacity:1">
              <path
                 inkscape:connector-curvature="0"
                 id="path5708_1_"
                 d="m 473.57574,-253.32751 c 3.48541,3.48541 5.22839,7.75391 5.22839,12.80219 0,5.04938 -1.71277,9.27203 -5.13831,12.66791 -3.63531,3.5766 -7.93182,5.36432 -12.88947,5.36432 -4.89777,0 -9.11987,-1.77319 -12.66513,-5.31952 -3.54581,-3.54584 -5.31845,-7.78302 -5.31845,-12.71271 0,-4.92859 1.77264,-9.19598 5.31845,-12.80219 3.4552,-3.48651 7.67728,-5.22949 12.66513,-5.22949 5.0483,-10e-6 9.31404,1.74297 12.79939,5.22949 z m -23.11798,2.34484 c -2.94672,2.97638 -4.41953,6.46289 -4.41953,10.46234 0,3.99835 1.45828,7.45526 4.37424,10.37067 2.9165,2.9165 6.38849,4.37421 10.41705,4.37421 4.02856,0 7.53015,-1.47223 10.50653,-4.4184 2.82593,-2.73645 4.23944,-6.17706 4.23944,-10.32648 0,-4.11804 -1.43646,-7.61346 -4.30768,-10.48468 -2.87067,-2.87067 -6.34991,-4.30658 -10.43829,-4.30658 -4.0884,1e-5 -7.54638,1.44318 -10.37176,4.32892 z m 7.75449,8.70319 c -0.45029,-0.98169 -1.1243,-1.47284 -2.02322,-1.47284 -1.58917,0 -2.38345,1.07007 -2.38345,3.20911 0,2.13953 0.79428,3.2085 2.38345,3.2085 1.04938,0 1.79892,-0.52075 2.24866,-1.56451 l 2.20276,1.17297 c -1.04993,1.86548 -2.62509,2.79846 -4.72549,2.79846 -1.6199,0 -2.91763,-0.4967 -3.89206,-1.48901 -0.9761,-0.99341 -1.46274,-2.36273 -1.46274,-4.10852 0,-1.71503 0.50229,-3.07654 1.50748,-4.08502 1.00519,-1.00854 2.25702,-1.51257 3.75781,-1.51257 2.22012,0 3.80981,0.87488 4.77081,2.62286 z m 10.36337,0 c -0.45087,-0.98169 -1.11145,-1.47284 -1.98242,-1.47284 -1.62103,0 -2.43213,1.07007 -2.43213,3.20911 0,2.13953 0.8111,3.2085 2.43213,3.2085 1.05109,0 1.78717,-0.52075 2.20728,-1.56451 l 2.25201,1.17297 c -1.04828,1.86548 -2.62122,2.79846 -4.71771,2.79846 -1.61768,0 -2.9126,-0.4967 -3.88647,-1.48901 -0.97217,-0.99341 -1.45935,-2.36273 -1.45935,-4.10852 0,-1.71503 0.49445,-3.07654 1.48285,-4.08502 0.98785,-1.00854 2.2453,-1.51257 3.7735,-1.51257 2.21619,0 3.80365,0.87488 4.76129,2.62286 z"
                 style="fill:#008000;fill-opacity:1" />
            </g>
          </g>
          <g
             id="g275">
            <circle
               cx="255.55124"
               cy="15.31348"
               r="10.80664"
               id="circle277"
               style="fill:#ffffff" />
            <g
               id="g279"
               style="fill:#008000;fill-opacity:1">
              <path
                 inkscape:connector-curvature="0"
                 d="m 258.67819,12.18701 c 0,-0.4165 -0.33789,-0.75391 -0.75293,-0.75391 h -4.77344 c -0.41504,0 -0.75293,0.3374 -0.75293,0.75391 v 4.77295 h 1.33105 v 5.65186 h 3.61719 v -5.65186 h 1.33105 v -4.77295 z"
                 id="path281"
                 style="fill:#008000;fill-opacity:1" />
              <circle
                 cx="255.53854"
                 cy="9.1723604"
                 r="1.63281"
                 id="circle283"
                 style="fill:#008000;fill-opacity:1" />
            </g>
            <path
               inkscape:connector-curvature="0"
               d="m 255.5239,3.40723 c -3.23242,0 -5.96875,1.12793 -8.20801,3.38379 -2.29785,2.3335 -3.44629,5.0957 -3.44629,8.28467 0,3.18897 1.14844,5.93164 3.44629,8.22656 2.29785,2.29443 5.03418,3.44189 8.20801,3.44189 3.21289,0 5.99805,-1.15625 8.35352,-3.47119 2.21973,-2.19727 3.33008,-4.92969 3.33008,-8.19727 0,-3.26758 -1.12988,-6.02881 -3.3877,-8.28467 -2.25977,-2.25585 -5.02442,-3.38378 -8.2959,-3.38378 z m 0.0293,2.09961 c 2.64844,0 4.89746,0.93408 6.74707,2.80127 1.86914,1.84717 2.80371,4.10303 2.80371,6.76758 0,2.68359 -0.91504,4.91064 -2.74512,6.68018 -1.92871,1.90625 -4.19629,2.85889 -6.80566,2.85889 -2.61035,0 -4.85938,-0.94287 -6.74707,-2.82959 -1.88965,-1.88672 -2.83301,-4.12305 -2.83301,-6.70947 0,-2.58691 0.9541,-4.84229 2.8623,-6.76758 1.83009,-1.8672 4.06934,-2.80128 6.71778,-2.80128 z"
               id="path285"
               style="clip-rule:evenodd;fill:#008000;fill-opacity:1;fill-rule:evenodd" />
          </g>
        </g>
      </g>
    </g>
  </g>
</svg>
